<svg width="45" height="45" viewBox="0 0 45 45" fill="none" xmlns="http://www.w3.org/2000/svg">
<circle cx="22.5" cy="22.5" r="22.5" fill="#00C853"/>
<path d="M19.6203 6.682H24.4303V26H19.6203V6.682ZM15.8763 26.182C15.1829 26.182 14.5849 26.0693 14.0823 25.844C13.5969 25.6187 13.2069 25.2547 12.9123 24.752C12.5829 24.232 12.3403 23.5387 12.1843 22.672C12.0456 21.8053 11.9763 20.722 11.9763 19.422C11.9763 16.874 12.2883 15.0887 12.9123 14.066C13.5016 13.0607 14.4896 12.558 15.8763 12.558C16.5003 12.558 17.0116 12.61 17.4103 12.714C17.8089 12.8007 18.1816 12.9827 18.5283 13.26V16.562H18.2423C17.8609 16.562 17.5836 16.588 17.4103 16.64C17.2543 16.6747 17.1329 16.77 17.0463 16.926C16.9596 17.1167 16.9076 17.394 16.8903 17.758C16.8729 18.018 16.8643 18.5553 16.8643 19.37C16.8643 20.1847 16.8729 20.722 16.8903 20.982C16.9076 21.346 16.9596 21.6233 17.0463 21.814C17.1329 21.9873 17.2716 22.0913 17.4623 22.126C17.7049 22.1607 17.9649 22.178 18.2423 22.178H18.5283V25.48C18.1816 25.74 17.7916 25.922 17.3583 26.026C16.9423 26.13 16.4483 26.182 15.8763 26.182Z" fill="white"/>
<path d="M28.2206 34.3993C27.5966 34.3993 27.0852 34.3473 26.6866 34.2433C26.2879 34.1566 25.9152 33.9746 25.5686 33.6973V30.3953H25.8546C26.2359 30.3953 26.5046 30.378 26.6606 30.3433C26.8339 30.2913 26.9639 30.1873 27.0506 30.0313C27.1372 29.8406 27.1892 29.5633 27.2066 29.1993C27.2239 28.9393 27.2326 28.402 27.2326 27.5873C27.2326 26.7726 27.2239 26.2353 27.2066 25.9753C27.1892 25.594 27.1372 25.3166 27.0506 25.1433C26.9812 24.97 26.8512 24.866 26.6606 24.8313C26.4179 24.7966 26.1492 24.7793 25.8546 24.7793H25.5686V21.4773C25.9152 21.2173 26.2966 21.0353 26.7126 20.9313C27.1459 20.8273 27.6486 20.7753 28.2206 20.7753C28.9139 20.7753 29.5032 20.888 29.9886 21.1133C30.4912 21.3386 30.8986 21.7026 31.2106 22.2053C31.8172 23.2106 32.1206 24.9873 32.1206 27.5353C32.1206 30.066 31.8172 31.8513 31.2106 32.8913C30.6039 33.8966 29.6072 34.3993 28.2206 34.3993ZM19.6666 20.9573H24.4766V39.3913H19.6666V20.9573Z" fill="white"/>
</svg>
