<svg width="30" height="30" viewBox="0 0 30 30" fill="none" xmlns="http://www.w3.org/2000/svg">
<path d="M15 4.32125C14.4825 4.32125 14.0625 3.90125 14.0625 3.38375V0.9375C14.0625 0.42 14.4825 0 15 0C15.5175 0 15.9375 0.42 15.9375 0.9375V3.38375C15.9375 3.90125 15.5175 4.32125 15 4.32125Z" fill="#FF6600"/>
<path d="M23.2136 7.72337C22.9736 7.72337 22.7336 7.63212 22.5511 7.44837C22.1848 7.08212 22.1848 6.48837 22.5511 6.12212L24.2811 4.39212C24.6473 4.02587 25.2411 4.02587 25.6073 4.39212C25.9736 4.75837 25.9736 5.35212 25.6073 5.71837L23.8773 7.44837C23.6936 7.63087 23.4536 7.72337 23.2136 7.72337Z" fill="#FF6600"/>
<path d="M29.0625 15.9375H26.6162C26.0987 15.9375 25.6787 15.5175 25.6787 15C25.6787 14.4825 26.0987 14.0625 26.6162 14.0625H29.0625C29.58 14.0625 30 14.4825 30 15C30 15.5175 29.58 15.9375 29.0625 15.9375Z" fill="#FF6600"/>
<path d="M24.9436 25.8813C24.7036 25.8813 24.4636 25.7901 24.2811 25.6063L22.5511 23.8763C22.1848 23.5101 22.1848 22.9163 22.5511 22.5501C22.9173 22.1838 23.5111 22.1838 23.8773 22.5501L25.6073 24.2801C25.9736 24.6463 25.9736 25.2401 25.6073 25.6063C25.4236 25.7901 25.1836 25.8813 24.9436 25.8813Z" fill="#FF6600"/>
<path d="M5.05633 25.8813C4.81633 25.8813 4.57633 25.7901 4.39383 25.6063C4.02758 25.2401 4.02758 24.6463 4.39383 24.2801L6.12383 22.5501C6.49008 22.1838 7.08383 22.1838 7.45008 22.5501C7.81633 22.9163 7.81633 23.5101 7.45008 23.8763L5.72008 25.6063C5.53633 25.7901 5.29633 25.8813 5.05633 25.8813Z" fill="#FF6600"/>
<path d="M3.38375 15.9375H0.9375C0.42 15.9375 0 15.5175 0 15C0 14.4825 0.42 14.0625 0.9375 14.0625H3.38375C3.90125 14.0625 4.32125 14.4825 4.32125 15C4.32125 15.5175 3.90125 15.9375 3.38375 15.9375Z" fill="#FF6600"/>
<path d="M6.78633 7.72337C6.54633 7.72337 6.30633 7.63212 6.12383 7.44837L4.39383 5.71837C4.02758 5.35212 4.02758 4.75837 4.39383 4.39212C4.76008 4.02587 5.35383 4.02587 5.72008 4.39212L7.45008 6.12212C7.81633 6.48837 7.81633 7.08212 7.45008 7.44837C7.26508 7.63087 7.02633 7.72337 6.78633 7.72337Z" fill="#FF6600"/>
<path d="M18.75 26.25V27.8125C18.75 29.0125 17.7625 30 16.5625 30H13.4375C12.3875 30 11.25 29.2 11.25 27.45V26.25H18.75Z" fill="#FF6600"/>
<path d="M20.5126 8.20073C18.4626 6.53823 15.7626 5.88823 13.1251 6.45073C9.81264 7.13823 7.12514 9.83823 6.43764 13.1507C5.73764 16.5507 7.01264 19.9257 9.73764 21.9882C10.4751 22.5382 10.9876 23.3882 11.1626 24.3757V24.3882C11.1876 24.3757 11.2251 24.3757 11.2501 24.3757H18.7501C18.7751 24.3757 18.7876 24.3757 18.8126 24.3882V24.3757C18.9876 23.4257 19.5501 22.5507 20.4126 21.8757C22.5251 20.2007 23.7501 17.7007 23.7501 15.0007C23.7501 12.3507 22.5751 9.87573 20.5126 8.20073ZM19.6876 15.6257C19.1751 15.6257 18.7501 15.2007 18.7501 14.6882C18.7501 12.7882 17.2126 11.2507 15.3126 11.2507C14.8001 11.2507 14.3751 10.8257 14.3751 10.3132C14.3751 9.80073 14.8001 9.37573 15.3126 9.37573C18.2376 9.37573 20.6251 11.7632 20.6251 14.6882C20.6251 15.2007 20.2001 15.6257 19.6876 15.6257Z" fill="#FF6600"/>
<path d="M11.1626 24.375H11.2497C11.2248 24.375 11.1875 24.375 11.1626 24.3874V24.375Z" fill="#7165E3"/>
<path d="M18.8122 24.375V24.3874C18.7873 24.375 18.7749 24.375 18.75 24.375H18.8122Z" fill="#7165E3"/>
</svg>
