<svg width="40" height="40" viewBox="0 0 40 40" fill="none" xmlns="http://www.w3.org/2000/svg">
<rect opacity="0.95" width="40" height="40" rx="5" fill="#F3F6F9"/>
<path fill-rule="evenodd" clip-rule="evenodd" d="M20 34.9985C28.2843 34.9985 35 28.2828 35 19.9985C35 11.7143 28.2843 4.99854 20 4.99854C11.7157 4.99854 5 11.7143 5 19.9985C5 24.3462 6.84968 28.2618 9.80504 31.0015L13.1113 11.974L21.8271 11.9911C24.516 11.9911 26.6294 12.7373 28.1675 14.2298C29.7056 15.7223 30.3778 17.6706 30.1841 20.0745C30.0018 22.5127 28.9821 24.4609 27.125 25.9193C25.2793 27.3776 22.9209 28.1068 20.0498 28.1068L15.333 28.0897L14.3164 33.8843C16.0693 34.6026 17.9884 34.9985 20 34.9985ZM20.2036 23.971L16.0337 23.9369L17.4009 16.1268L22.1177 16.1439C23.2 16.1895 24.0146 16.5654 24.5615 17.2718C25.1198 17.9782 25.3135 18.9238 25.1426 20.1087C24.9717 21.2936 24.4419 22.2336 23.5532 22.9286C22.6646 23.6235 21.548 23.971 20.2036 23.971Z" fill="#1DB100"/>
</svg>
