<svg width="40" height="40" viewBox="0 0 40 40" fill="none" xmlns="http://www.w3.org/2000/svg">
<rect opacity="0.95" width="40" height="40" rx="5" fill="#F3F6F9"/>
<ellipse cx="19.9172" cy="19.9866" rx="13.9846" ry="13.9846" fill="#4A9DFF"/>
<path d="M22.4541 23.3228C22.4541 22.8247 22.2959 22.4146 21.9795 22.0923C21.6631 21.7642 21.1357 21.4712 20.3975 21.2134C19.6592 20.9497 19.085 20.7065 18.6748 20.4839C17.3096 19.7515 16.627 18.6675 16.627 17.2319C16.627 16.2593 16.9229 15.4595 17.5146 14.8325C18.1064 14.2056 18.9092 13.8335 19.9229 13.7163V11.8003H21.3291V13.7339C22.3486 13.8804 23.1367 14.314 23.6934 15.0347C24.25 15.7495 24.5283 16.6812 24.5283 17.8296H22.4014C22.4014 17.0913 22.2344 16.5112 21.9004 16.0894C21.5723 15.6616 21.124 15.4478 20.5557 15.4478C19.9932 15.4478 19.5537 15.6001 19.2373 15.9048C18.9209 16.2095 18.7627 16.646 18.7627 17.2144C18.7627 17.7241 18.918 18.1343 19.2285 18.4448C19.5449 18.7495 20.0781 19.0396 20.8281 19.3149C21.5781 19.5903 22.167 19.8452 22.5947 20.0796C23.0225 20.314 23.3828 20.5835 23.6758 20.8882C23.9688 21.187 24.1943 21.5327 24.3525 21.9253C24.5107 22.3179 24.5898 22.7778 24.5898 23.3052C24.5898 24.2954 24.2852 25.0981 23.6758 25.7134C23.0723 26.3286 22.2285 26.6919 21.1445 26.8032V28.5171H19.7471V26.812C18.5869 26.6831 17.6934 26.2671 17.0664 25.564C16.4453 24.8608 16.1348 23.9292 16.1348 22.769H18.2705C18.2705 23.5073 18.4551 24.0786 18.8242 24.4829C19.1992 24.8872 19.7266 25.0894 20.4062 25.0894C21.0742 25.0894 21.5811 24.9282 21.9268 24.606C22.2783 24.2837 22.4541 23.856 22.4541 23.3228Z" fill="white"/>
<path d="M21.6533 8.17337C24.5503 8.68343 27.1772 10.1974 29.0733 12.4497C30.9694 14.7021 32.0137 17.5491 32.0232 20.4916C32.0326 23.434 31.0065 26.2841 29.1249 28.5422C27.2433 30.8002 24.6262 32.322 21.7325 32.8407L21.5688 31.9352C24.25 31.4546 26.675 30.0445 28.4184 27.9523C30.1619 25.8601 31.1126 23.2193 31.1038 20.4929C31.0951 17.7665 30.1274 15.1286 28.3706 13.0417C26.6137 10.9547 24.1798 9.55196 21.4955 9.07936L21.6533 8.17337Z" fill="white"/>
<path d="M18.3467 8.17337C15.4497 8.68343 12.8228 10.1974 10.9267 12.4497C9.03061 14.7021 7.98628 17.5491 7.97684 20.4916C7.9674 23.434 8.99345 26.2841 10.8751 28.5422C12.7567 30.8002 15.3738 32.322 18.2675 32.8407L18.4312 31.9352C15.75 31.4546 13.325 30.0445 11.5816 27.9523C9.83814 25.8601 8.88744 23.2193 8.89618 20.4929C8.90493 17.7665 9.87256 15.1286 11.6294 13.0417C13.3863 10.9547 15.8202 9.55196 18.5045 9.07936L18.3467 8.17337Z" fill="white"/>
</svg>
