<svg width="178" height="47" viewBox="0 0 178 47" fill="none" xmlns="http://www.w3.org/2000/svg">
<circle cx="22.5" cy="23.5" r="22.5" fill="#00C853"/>
<path d="M19.6203 7.682H24.4303V27H19.6203V7.682ZM15.8763 27.182C15.1829 27.182 14.5849 27.0693 14.0823 26.844C13.5969 26.6187 13.2069 26.2547 12.9123 25.752C12.5829 25.232 12.3403 24.5387 12.1843 23.672C12.0456 22.8053 11.9763 21.722 11.9763 20.422C11.9763 17.874 12.2883 16.0887 12.9123 15.066C13.5016 14.0607 14.4896 13.558 15.8763 13.558C16.5003 13.558 17.0116 13.61 17.4103 13.714C17.8089 13.8007 18.1816 13.9827 18.5283 14.26V17.562H18.2423C17.8609 17.562 17.5836 17.588 17.4103 17.64C17.2543 17.6747 17.1329 17.77 17.0463 17.926C16.9596 18.1167 16.9076 18.394 16.8903 18.758C16.8729 19.018 16.8643 19.5553 16.8643 20.37C16.8643 21.1847 16.8729 21.722 16.8903 21.982C16.9076 22.346 16.9596 22.6233 17.0463 22.814C17.1329 22.9873 17.2716 23.0913 17.4623 23.126C17.7049 23.1607 17.9649 23.178 18.2423 23.178H18.5283V26.48C18.1816 26.74 17.7916 26.922 17.3583 27.026C16.9423 27.13 16.4483 27.182 15.8763 27.182Z" fill="white"/>
<path d="M28.2206 35.3993C27.5966 35.3993 27.0852 35.3473 26.6866 35.2433C26.2879 35.1566 25.9152 34.9746 25.5686 34.6973V31.3953H25.8546C26.2359 31.3953 26.5046 31.378 26.6606 31.3433C26.8339 31.2913 26.9639 31.1873 27.0506 31.0313C27.1372 30.8406 27.1892 30.5633 27.2066 30.1993C27.2239 29.9393 27.2326 29.402 27.2326 28.5873C27.2326 27.7726 27.2239 27.2353 27.2066 26.9753C27.1892 26.594 27.1372 26.3166 27.0506 26.1433C26.9812 25.97 26.8512 25.866 26.6606 25.8313C26.4179 25.7966 26.1492 25.7793 25.8546 25.7793H25.5686V22.4773C25.9152 22.2173 26.2966 22.0353 26.7126 21.9313C27.1459 21.8273 27.6486 21.7753 28.2206 21.7753C28.9139 21.7753 29.5032 21.888 29.9886 22.1133C30.4912 22.3386 30.8986 22.7026 31.2106 23.2053C31.8172 24.2106 32.1206 25.9873 32.1206 28.5353C32.1206 31.066 31.8172 32.8513 31.2106 33.8913C30.6039 34.8966 29.6072 35.3993 28.2206 35.3993ZM19.6666 21.9573H24.4766V40.3913H19.6666V21.9573Z" fill="white"/>
<path d="M74.2695 37H68.0781L68.1172 32.4297H74.2695C75.806 32.4297 77.1016 32.0846 78.1562 31.3945C79.2109 30.6914 80.0052 29.6693 80.5391 28.3281C81.0859 26.987 81.3594 25.3659 81.3594 23.4648V22.0781C81.3594 20.6198 81.2031 19.3372 80.8906 18.2305C80.5911 17.1237 80.1419 16.1927 79.543 15.4375C78.944 14.6823 78.2083 14.1159 77.3359 13.7383C76.4635 13.3477 75.4609 13.1523 74.3281 13.1523H67.9609V8.5625H74.3281C76.2292 8.5625 77.9674 8.88802 79.543 9.53906C81.1315 10.1771 82.5052 11.0951 83.6641 12.293C84.8229 13.4909 85.7148 14.9232 86.3398 16.5898C86.9779 18.2435 87.2969 20.0859 87.2969 22.1172V23.4648C87.2969 25.4831 86.9779 27.3255 86.3398 28.9922C85.7148 30.6589 84.8229 32.0911 83.6641 33.2891C82.5182 34.474 81.1445 35.3919 79.543 36.043C77.9544 36.681 76.1966 37 74.2695 37ZM71.3984 8.5625V37H65.5391V8.5625H71.3984ZM100.93 37.3906C99.2891 37.3906 97.8177 37.1302 96.5156 36.6094C95.2135 36.0755 94.1068 35.3398 93.1953 34.4023C92.2969 33.4648 91.6068 32.3776 91.125 31.1406C90.6432 29.8906 90.4023 28.5625 90.4023 27.1562V26.375C90.4023 24.7734 90.6302 23.3086 91.0859 21.9805C91.5417 20.6523 92.1927 19.5 93.0391 18.5234C93.8984 17.5469 94.9401 16.7982 96.1641 16.2773C97.388 15.7435 98.7682 15.4766 100.305 15.4766C101.802 15.4766 103.13 15.724 104.289 16.2188C105.448 16.7135 106.418 17.4167 107.199 18.3281C107.993 19.2396 108.592 20.3333 108.996 21.6094C109.4 22.8724 109.602 24.2786 109.602 25.8281V28.1719H92.8047V24.4219H104.074V23.9922C104.074 23.2109 103.931 22.5143 103.645 21.9023C103.371 21.2773 102.954 20.7826 102.395 20.418C101.835 20.0534 101.118 19.8711 100.246 19.8711C99.5039 19.8711 98.8659 20.0339 98.332 20.3594C97.7982 20.6849 97.362 21.1406 97.0234 21.7266C96.6979 22.3125 96.4505 23.0026 96.2812 23.7969C96.125 24.5781 96.0469 25.4375 96.0469 26.375V27.1562C96.0469 28.0026 96.1641 28.7839 96.3984 29.5C96.6458 30.2161 96.9909 30.8346 97.4336 31.3555C97.8893 31.8763 98.4362 32.2799 99.0742 32.5664C99.7253 32.8529 100.461 32.9961 101.281 32.9961C102.297 32.9961 103.241 32.8008 104.113 32.4102C104.999 32.0065 105.76 31.401 106.398 30.5938L109.133 33.5625C108.69 34.2005 108.085 34.8125 107.316 35.3984C106.561 35.9844 105.65 36.4661 104.582 36.8438C103.514 37.2083 102.297 37.3906 100.93 37.3906ZM124.23 26.8633H116.984V22.293H124.23C125.35 22.293 126.262 22.1107 126.965 21.7461C127.668 21.3685 128.182 20.8477 128.508 20.1836C128.833 19.5195 128.996 18.7708 128.996 17.9375C128.996 17.0911 128.833 16.3034 128.508 15.5742C128.182 14.8451 127.668 14.2591 126.965 13.8164C126.262 13.3737 125.35 13.1523 124.23 13.1523H119.016V37H113.156V8.5625H124.23C126.457 8.5625 128.365 8.96615 129.953 9.77344C131.555 10.5677 132.779 11.668 133.625 13.0742C134.471 14.4805 134.895 16.0885 134.895 17.8984C134.895 19.7344 134.471 21.3229 133.625 22.6641C132.779 24.0052 131.555 25.0404 129.953 25.7695C128.365 26.4987 126.457 26.8633 124.23 26.8633ZM149.758 32.2344V22.8203C149.758 22.1432 149.647 21.5638 149.426 21.082C149.204 20.5872 148.859 20.2031 148.391 19.9297C147.935 19.6562 147.342 19.5195 146.613 19.5195C145.988 19.5195 145.448 19.6302 144.992 19.8516C144.536 20.0599 144.185 20.3659 143.938 20.7695C143.69 21.1602 143.566 21.6224 143.566 22.1562H137.941C137.941 21.2578 138.15 20.4049 138.566 19.5977C138.983 18.7904 139.589 18.0807 140.383 17.4688C141.177 16.8438 142.121 16.3555 143.215 16.0039C144.322 15.6523 145.559 15.4766 146.926 15.4766C148.566 15.4766 150.025 15.75 151.301 16.2969C152.577 16.8438 153.579 17.6641 154.309 18.7578C155.051 19.8516 155.422 21.2188 155.422 22.8594V31.9023C155.422 33.0612 155.493 34.0117 155.637 34.7539C155.78 35.4831 155.988 36.1211 156.262 36.668V37H150.578C150.305 36.4271 150.096 35.7109 149.953 34.8516C149.823 33.9792 149.758 33.1068 149.758 32.2344ZM150.5 24.1289L150.539 27.3125H147.395C146.652 27.3125 146.008 27.3971 145.461 27.5664C144.914 27.7357 144.465 27.9766 144.113 28.2891C143.762 28.5885 143.501 28.9401 143.332 29.3438C143.176 29.7474 143.098 30.1901 143.098 30.6719C143.098 31.1536 143.208 31.5898 143.43 31.9805C143.651 32.3581 143.97 32.6576 144.387 32.8789C144.803 33.0872 145.292 33.1914 145.852 33.1914C146.698 33.1914 147.434 33.0221 148.059 32.6836C148.684 32.3451 149.165 31.9284 149.504 31.4336C149.855 30.9388 150.038 30.4701 150.051 30.0273L151.535 32.4102C151.327 32.944 151.04 33.4974 150.676 34.0703C150.324 34.6432 149.875 35.1836 149.328 35.6914C148.781 36.1862 148.124 36.5964 147.355 36.9219C146.587 37.2344 145.676 37.3906 144.621 37.3906C143.28 37.3906 142.062 37.1237 140.969 36.5898C139.888 36.043 139.029 35.2943 138.391 34.3438C137.766 33.3802 137.453 32.2865 137.453 31.0625C137.453 29.9557 137.661 28.9727 138.078 28.1133C138.495 27.2539 139.107 26.5312 139.914 25.9453C140.734 25.3464 141.757 24.8971 142.98 24.5977C144.204 24.2852 145.624 24.1289 147.238 24.1289H150.5ZM165.715 34.6172L171.32 15.8672H177.355L168.859 40.1836C168.677 40.7174 168.43 41.2904 168.117 41.9023C167.818 42.5143 167.408 43.0938 166.887 43.6406C166.379 44.2005 165.734 44.6562 164.953 45.0078C164.185 45.3594 163.241 45.5352 162.121 45.5352C161.587 45.5352 161.151 45.5026 160.812 45.4375C160.474 45.3724 160.07 45.2812 159.602 45.1641V41.043C159.745 41.043 159.895 41.043 160.051 41.043C160.207 41.056 160.357 41.0625 160.5 41.0625C161.242 41.0625 161.848 40.9779 162.316 40.8086C162.785 40.6393 163.163 40.3789 163.449 40.0273C163.736 39.6888 163.964 39.2461 164.133 38.6992L165.715 34.6172ZM163.371 15.8672L167.961 31.1797L168.762 37.1367L164.934 37.5469L157.336 15.8672H163.371Z" fill="#00C853"/>
</svg>
