<svg width="200" height="200" viewBox="0 0 200 200" fill="none" xmlns="http://www.w3.org/2000/svg">
<path opacity="0.1" d="M192 0H8C3.58172 0 0 3.58172 0 8V192C0 196.418 3.58172 200 8 200H192C196.418 200 200 196.418 200 192V8C200 3.58172 196.418 0 192 0Z" fill="white"/>
<path d="M120.794 124C122.599 124 124.282 123.087 125.266 121.573C126.249 120.059 126.4 118.15 125.667 116.5L123.667 112V88C123.667 79.1634 116.503 72 107.667 72H94.3332C85.4967 72 78.3332 79.1634 78.3332 88V112L76.3332 116.5C75.5995 118.15 75.7506 120.059 76.7343 121.573C77.718 123.087 79.4009 124 81.2063 124H120.794Z" fill="#FAFAFA"/>
<path d="M112.333 79.9188L113.667 77.6108C112.727 77.0672 111.717 76.6532 110.665 76.3804L109.999 78.9618C110.817 79.1727 111.602 79.4943 112.333 79.9188Z" fill="#FFCB73"/>
<path d="M117 93.3333H119.667V88C119.676 84.7546 118.359 81.6465 116.023 79.3945L114.165 81.3066C115.983 83.0586 117.006 85.4759 117 88V93.3333Z" fill="#FFCB73"/>
<path d="M94.3333 72.0002H107.667L113 61.3335H89L94.3333 72.0002Z" fill="#FAFAFA"/>
<path d="M103.667 93.3332H98.3333C96.8607 93.3332 95.6667 92.1392 95.6667 90.6665C95.6667 89.1938 96.8607 87.9998 98.3333 87.9998H107.667V85.3332H102.333V82.6665H99.6667V85.3332H98.3333C95.388 85.3332 93 87.7212 93 90.6665C93 93.6118 95.388 95.9998 98.3333 95.9998H103.667C105.139 95.9998 106.333 97.1938 106.333 98.6665C106.333 100.139 105.139 101.333 103.667 101.333H94.3333V104H99.6667V106.667H102.333V104H103.667C106.612 104 109 101.612 109 98.6665C109 95.7212 106.612 93.3332 103.667 93.3332Z" fill="#F58F00"/>
<path d="M73.5066 114.273C80.379 108.928 89.892 108.55 97.1667 113.333H107.667C110.612 113.333 113 115.721 113 118.666C113 121.612 110.612 124 107.667 124H110.333L131.102 113.6C133.074 112.612 135.436 112.825 137.201 114.149L137.268 114.198C138.779 115.327 139.668 117.103 139.667 118.989V119.129C139.665 121.311 138.473 123.317 136.557 124.361L113.913 136.713C111.564 137.995 108.93 138.666 106.253 138.666H73.0001V114.666L73.5066 114.273Z" fill="#FEC9A3"/>
<path d="M73 114.667H62.3333V138.667H73V114.667Z" fill="#00ACEA"/>
<path d="M73 130.667H62.3333V138.667H73V130.667Z" fill="#00ACEA"/>
<path d="M69 130.667H66.3333V133.333H69V130.667Z" fill="#1A5485"/>
<path d="M91.6667 125.333H107.667C108.403 125.333 109 124.736 109 124C109 123.264 108.403 122.667 107.667 122.667H91.6667C90.9303 122.667 90.3333 123.264 90.3333 124C90.3333 124.736 90.9303 125.333 91.6667 125.333Z" fill="#FEB784"/>
<path d="M77 106.667V88C76.9811 79.2292 83.5345 71.8353 92.2441 70.8002L87.8001 61.9291C87.5931 61.515 87.6159 61.0228 87.8607 60.6289C88.1055 60.2357 88.5365 59.9974 89 60H113C113.462 60 113.891 60.239 114.135 60.6322C114.378 61.0248 114.4 61.5157 114.193 61.9291L109.755 70.8002C118.45 71.8627 124.989 79.2403 125 88V112H122.333V88C122.324 79.9037 115.763 73.3431 107.667 73.3334H94.3333C90.4421 73.3275 86.7077 74.8711 83.9564 77.6231C81.2044 80.3744 79.6608 84.1088 79.6667 88V106.667H77ZM95.1576 70.6667H106.842L110.842 62.6667H91.1576L95.1576 70.6667Z" fill="#414141"/>
<path d="M112.333 79.9188C111.603 79.495 110.819 79.1727 110.001 78.9618L110.668 76.3804C111.719 76.6532 112.729 77.0672 113.669 77.6108L112.333 79.9188Z" fill="#414141"/>
<path d="M119.667 93.3333H117V88C117.006 85.4759 115.983 83.0586 114.165 81.3066L116.023 79.3945C118.359 81.6465 119.676 84.7546 119.667 88V93.3333Z" fill="#414141"/>
<path d="M137.197 125.531L114.561 137.876C112.014 139.269 109.157 139.999 106.253 140H62.3333C61.597 140 61 139.403 61 138.667V114.667C61 113.93 61.597 113.333 62.3333 113.333H72.5371L72.6894 113.215C74.2552 111.992 75.9863 110.997 77.8307 110.259C84.3001 107.619 91.6465 108.268 97.5534 112H107.667C109.79 111.999 111.786 113.011 113.043 114.722C114.299 116.434 114.665 118.641 114.028 120.667L130.51 112.408C132.958 111.179 135.894 111.46 138.064 113.131C139.909 114.513 140.996 116.682 141 118.987V119.134C141.003 121.802 139.544 124.259 137.197 125.531ZM71.6667 116H63.6667V137.333H71.6667V116ZM138.333 118.987C138.324 117.494 137.607 116.094 136.401 115.214C135.044 114.19 133.222 114.026 131.704 114.792L110.929 125.192C110.745 125.285 110.54 125.333 110.333 125.333H90.3333V122.667H107.667C109.876 122.667 111.667 120.876 111.667 118.667C111.667 116.458 109.876 114.667 107.667 114.667H97.1601C96.8991 114.666 96.6439 114.59 96.4251 114.447C91.2012 111.007 84.6159 110.365 78.8255 112.732C77.2142 113.378 75.7018 114.247 74.3333 115.313V137.333H106.253C108.71 137.333 111.127 136.714 113.283 135.536L135.925 123.188C137.412 122.382 138.337 120.825 138.333 119.134V118.987Z" fill="#414141"/>
<path d="M69 130.667H66.3333V133.333H69V130.667Z" fill="#414141"/>
<path d="M102.333 106.667V104H103.667C106.612 104 109 101.612 109 98.6665C109 95.7212 106.612 93.3332 103.667 93.3332H98.3333C96.8607 93.3332 95.6667 92.1392 95.6667 90.6665C95.6667 89.1938 96.8607 87.9998 98.3333 87.9998H107.667V85.3332H102.333V82.6665H99.6667V85.3332H98.3333C95.388 85.3332 93 87.7212 93 90.6665C93 93.6118 95.388 95.9998 98.3333 95.9998H103.667C105.139 95.9998 106.333 97.1938 106.333 98.6665C106.333 100.139 105.139 101.333 103.667 101.333H94.3333V104H99.6667V106.667H102.333Z" fill="#414141"/>
</svg>
